<?xml version="1.0" standalone="no"?>
<!DOCTYPE svg PUBLIC "-//W3C//DTD SVG 20010904//EN"
 "http://www.w3.org/TR/2001/REC-SVG-20010904/DTD/svg10.dtd">
<svg version="1.0" xmlns="http://www.w3.org/2000/svg"
 width="1945.000000pt" height="1945.000000pt" viewBox="0 0 1945.000000 1945.000000"
 preserveAspectRatio="xMidYMid meet">
<metadata>
Created by potrace 1.11, written by Peter Selinger 2001-2013
</metadata>
<g transform="translate(0.000000,1945.000000) scale(0.100000,-0.100000)"
fill="#000000" stroke="none">
<path d="M1888 12248 c-2 -942 -2 -2855 0 -4250 l4 -2538 1088 0 1088 0 4
1264 c2 696 6 1267 8 1269 3 2 385 6 850 8 l844 4 692 -1263 c380 -695 696
-1268 701 -1273 5 -5 485 -8 1190 -7 l1182 3 -439 770 c-241 424 -520 914
-621 1090 -475 832 -457 800 -440 807 9 3 66 22 126 41 612 192 987 610 1151
1282 27 112 67 378 84 560 17 177 25 1347 11 1670 -17 427 -61 707 -156 992
-253 764 -806 1155 -1778 1260 -136 15 -430 17 -2869 20 l-2716 4 -4 -1713z
m4844 -14 c249 -52 399 -195 471 -449 22 -79 22 -85 22 -780 0 -641 -2 -707
-18 -785 -59 -272 -206 -421 -478 -486 -68 -17 -170 -18 -1361 -21 l-1288 -4
0 1270 0 1270 78 4 c42 2 624 1 1292 -1 996 -3 1227 -6 1282 -18z"/>
<path d="M10610 9690 l0 -4250 1090 0 1090 0 0 1215 0 1215 1598 0 c1625 0
1706 2 1967 40 560 80 995 289 1272 609 307 354 462 833 504 1555 17 293 6
1679 -15 1879 -52 501 -169 876 -367 1177 -83 126 -290 334 -414 416 -354 235
-745 347 -1345 384 -105 6 -1113 10 -2772 10 l-2608 0 0 -4250z m4720 2540
c187 -20 321 -72 417 -162 74 -70 117 -139 152 -245 49 -146 53 -222 49 -988
-4 -685 -5 -702 -27 -785 -65 -249 -197 -383 -446 -452 l-80 -23 -1297 -3
-1298 -3 0 1336 0 1335 1218 0 c735 0 1255 -4 1312 -10z"/>
</g>
</svg>
