<svg xmlns="http://www.w3.org/2000/svg" xmlns:xlink="http://www.w3.org/1999/xlink" viewBox="0 0 486 486"><defs><style>.cls-1{fill:#fff;}.cls-2{opacity:0.3;fill:url(#Degradado_sin_nombre_13);}.cls-3,.cls-4{font-size:303.54px;font-family:RussoOne-Regular, Russo One;}.cls-3{fill:#474645;}.cls-4{fill:#00926a;}</style><linearGradient id="Degradado_sin_nombre_13" x1="14.55" y1="241.94" x2="467.47" y2="241.94" gradientUnits="userSpaceOnUse"><stop offset="0.24" stop-color="#4385f9"/><stop offset="0.39" stop-color="#7870cd"/><stop offset="0.71" stop-color="#f83c64"/></linearGradient></defs><g id="Capa_2" data-name="Capa 2"><g id="Logo_Icon" data-name="Logo Icon"><path id="Fondo" class="cls-1" d="M486,243a241.89,241.89,0,0,1-38.07,130.64c-.29.46-.58.92-.88,1.37A242.78,242.78,0,0,1,243,486C108.79,486,0,377.21,0,243S108.79,0,243,0,486,108.79,486,243Z"/><path id="Ondas" class="cls-2" d="M312,204.31s-2.39-47.84-7.18-38.28,0,64.59-14.35,55-12-64.59-16.75-78.95-7.17,0-7.17,0-2.4,19.14-4.79,40.67-9.57,9.57-9.57,7.18-2.39-28.71-7.17-33.49-7.18,28.7-7.18,28.7,2.39,74.16-9.57,59.81-7.18-119.61-16.74-138.75-14.36,26.31-14.36,26.31l-4.78,76.55s-2.39,23.93-12,16.75-7.18-90.9-14.36-107.65-14.35,16.75-14.35,16.75-7.18,90.9-9.57,100.47S139.74,245,135,245s-7.17-59.81-9.56-64.59-4.79-9.57-7.18,0,0,9.57-7.18,14.35-7.18-40.67-12-52.63-7.18,7.18-7.18,7.18-7.17,52.63-9.57,64.59-9.56,9.57-9.56,9.57h-55s-7.17,4.78,0,12h55s9.56-2.39,12,12,7.17,93.3,7.17,93.3,7.18,47.84,12,0,7.18-59.81,14.36-59.81,7.18,16.75,7.18,16.75l2.39,38.27S130.17,355,135,352.63s7.18-12,7.18-16.75,9.57-86.12,19.14-83.73c0,0,4.78-2.39,7.18,9.57S178,300,182.8,297.61c0,0,9.57,4.78,12-33.49,0,0,4.78-23.93,12-16.75s14.35,81.34,14.35,81.34,4.79,40.66,9.57,40.66,7.18-21.53,7.18-26.31,2.39-64.59,12-62.2,14.35,71.77,14.35,71.77l2.4,21.53s2.39,16.74,4.78,2.39,4.79-45.45,4.79-45.45l4.78-62.2s2.39-33.49,9.57-33.49,12,40.67,12,40.67,4.78,43.06,4.78,47.84,2.4,19.14,4.79,16.75,2.39-81.34,7.18-78.95c0,0,4.78-7.17,12,47.85S347.86,367,352.65,312s16.74-23.92,16.74-19.14,12,112.44,16.75,62.2,0-122,21.53-119.61h55s4.78-2.39,4.78-7.18c0,0-2.39-4.78-4.78-4.78h-55s-7.18,2.39-12-21.53-9.57-88.51-19.14-57.42c0,0,0,64.59-12,50.24a52.21,52.21,0,0,1-2.39-14.35c0-7.18-7.18-23.92-9.57,4.78s-2.4,74.16-14.36,59.81-2.39-105.26-9.57-117.22c0,0-2.39-7.18-4.78,14.35s-2.39,86.12-9.57,76.55A52.12,52.12,0,0,1,312,204.31Z"/><text class="cls-3" transform="translate(29.08 349.71)">R</text><text class="cls-4" transform="translate(246.96 349.2)">P</text></g></g></svg>