<svg id="logoheader" xmlns="http://www.w3.org/2000/svg" xmlns:xlink="http://www.w3.org/1999/xlink" viewBox="0 0 969.71 350.32"><defs><style>.cls-1{fill:url(#Degradado_sin_nombre_43);}.cls-2{fill:#a8a8a9;}.cls-3,.cls-6{fill:#474645;}.cls-4{fill:#706f6f;}.cls-5{fill:#54514e;}.cls-6,.cls-7{font-size:130.36px;font-family:RussoOne-Regular, Russo One;}.cls-7{fill:#00926a;letter-spacing:-0.06em;}.cls-8{letter-spacing:0em;}.cls-9{fill:#b4b4b4;}.cls-10{fill:#7a7a7a;}.cls-11{fill:#9c9c9c;}.cls-12{fill:#3d3c3b;}.cls-13{fill:#bbb;}.cls-14{fill:#747372;}.cls-15{fill:#292929;}.cls-16{fill:#dfdfdf;}.cls-17{fill:#010100;}.cls-18{opacity:0.14;}</style><linearGradient id="Degradado_sin_nombre_43" x1="725.25" y1="111.35" x2="895.12" y2="111.35" gradientUnits="userSpaceOnUse"><stop offset="0.24" stop-color="#4385f9"/><stop offset="0.39" stop-color="#7870cd"/><stop offset="0.71" stop-color="#f83c64"/></linearGradient></defs><g id="Capa_2" data-name="Capa 2"><g id="Logo_base" data-name="Logo base"><path id="Ondas" class="cls-1" d="M836.8,97.23s-.89-17.94-2.69-14.35,0,24.22-5.38,20.64-4.49-24.23-6.28-29.61-2.69,0-2.69,0-.9,7.17-1.8,15.25-3.59,3.59-3.59,2.69-.89-10.77-2.69-12.56S809,90.06,809,90.06s.9,27.81-3.59,22.43-2.69-44.86-6.28-52-5.38,9.87-5.38,9.87L791.94,99s-.89,9-4.48,6.28-2.69-34.09-5.39-40.38-5.38,6.29-5.38,6.29S774,105.31,773.1,108.9s-.9,3.59-2.69,3.59-2.69-22.43-3.59-24.23-1.79-3.59-2.69,0,0,3.59-2.69,5.39S758.75,78.39,757,73.91s-2.69,2.69-2.69,2.69-2.69,19.74-3.59,24.22-3.59,3.59-3.59,3.59H726.45s-2.69,1.8,0,4.49h20.63s3.59-.9,4.49,4.48,2.69,35,2.69,35,2.69,17.94,4.49,0S761.44,126,764.13,126s2.69,6.28,2.69,6.28l.9,14.35s.9,7.18,2.69,6.28,2.69-4.48,2.69-6.28,3.59-32.3,7.18-31.4c0,0,1.79-.9,2.69,3.59s3.59,14.35,5.38,13.46c0,0,3.59,1.79,4.49-12.57,0,0,1.79-9,4.49-6.28s5.38,30.51,5.38,30.51,1.79,15.25,3.59,15.25,2.69-8.07,2.69-9.87.9-24.22,4.49-23.32,5.38,26.91,5.38,26.91l.9,8.08s.89,6.28,1.79.89,1.8-17,1.8-17l1.79-23.33s.9-12.56,3.59-12.56,4.48,15.25,4.48,15.25S835,140.3,835,142.1s.9,7.17,1.79,6.28.9-30.51,2.7-29.61c0,0,1.79-2.69,4.48,17.94s6.28,21.53,8.08.9,6.28-9,6.28-7.18,4.48,42.17,6.28,23.33,0-45.76,8.07-44.86h20.64a3.32,3.32,0,0,0,1.79-2.69s-.89-1.8-1.79-1.8H872.69s-2.69.9-4.48-8.07S864.62,63.14,861,74.8c0,0,0,24.23-4.49,18.85a19.79,19.79,0,0,1-.89-5.39c0-2.69-2.7-9-3.59,1.8s-.9,27.81-5.39,22.43-.89-39.48-3.59-44c0,0-.89-2.69-1.79,5.39s-.9,32.3-3.59,28.71A19.5,19.5,0,0,1,836.8,97.23Z"/><g id="Auricular"><g id="Izquierdo"><path class="cls-2" d="M72,256.53c1.66-27.78,17.43-49.69,37.08-46.59,22.68,3.58,34.27,24.77,30.92,51.63-1.24,10-12.42,45.95-36.74,46.29C82.57,308.16,70.38,284.31,72,256.53Z"/><path class="cls-3" d="M72,256.53c1.66-27.78,17.54-50.77,37.27-48.26,20.08,2.56,30.09,26.16,26.74,53-1.25,10-8.42,47.24-32.75,47.59C82.58,309.17,70.38,284.31,72,256.53Z"/><path d="M72,256.53c1.66-27.78,17.48-50.24,37.27-48.26,11.12,1.12,26.85,23.81,23.5,50.67-1.25,10-10,49.94-32.14,49.72C80.84,308.46,70.38,284.31,72,256.53Z"/><path class="cls-2" d="M71.85,257.05c1.38-33.14,22.37-49.6,32.07-48.57,7.14.76,21.93,24.81,19.63,51.77-1.79,21-13.35,49.33-26.88,48.13C88.17,307.62,70.23,295.83,71.85,257.05Z"/><path d="M71.85,257.05c1.65-33.13,21.57-49.65,30.88-48.64,6.84.74,21.23,27.61,18.7,51.71-2.3,21.92-13.41,49.1-25.9,48.19C88.68,307.81,69.86,296.86,71.85,257.05Z"/></g><g id="Derecho"><path d="M10.81,257.33c.67,27.54,9.78,47.92,41.36,48.89,22.55.69,38.9-21.48,39-50.83,0-24.91-17.38-49.55-41.37-48.89C22.72,207.25,10.14,229.8,10.81,257.33Z"/><path class="cls-4" d="M4.8,257.61c.66,27.16,16.3,47.83,38,48.29,20.72.43,36.11-22.54,35.64-50.07C78,231.26,59.51,204.76,40,207.74,22.55,210.4,4.14,230.46,4.8,257.61Z"/><path class="cls-2" d="M4.5,257.81C5.75,288.15,25,306.94,39.62,306c18.46-1.22,33.22-22.38,32.74-49.8-.43-24.47-17.21-47.9-34.69-47.66C26.81,208.65,3.14,225.11,4.5,257.81Z"/><path class="cls-4" d="M9.44,257.48c1.49,19.4,3.17,34.33,28.88,33.11,14-.66,24-16.56,23.5-37.12-.4-17-11.86-35.29-28.88-33.11C8.22,223.52,8,238.09,9.44,257.48Z"/><path class="cls-3" d="M4.86,256.42c.45,19.17,13.34,34.5,25,34.14,13.33-.42,23.77-16.11,23.31-35.27S41.6,221.15,28.28,221.46C15.51,221.77,4.41,237.26,4.86,256.42Z"/></g><g id="Vincha"><path d="M13.66,196.54s.65,1.41-1.08,1.37-9,11.92-7.9,21.69a2.13,2.13,0,0,1-.94,2.58c-1.46,1.08-8.17,19.24,1,27a52.69,52.69,0,0,1,4.6-17.15c-.94-2-1.53-4.05-.85-5.25.79-1.39,2.19-2.28,4.81-1.71.3.07.61.16.94.26,2.85.9,6.94,3.33,12.84,8.22C39.65,244,49.51,265.17,51,269.21s9.58,5.83,13,1.23-6.75-20-8.58-23a135.62,135.62,0,0,0-22.07-26.16s-3.66-6,3.63-11.56a11,11,0,0,0,1.34-1.19c.18-.19.34-.38.48-.56,3.38-4.42-4.37-6.78-3-6.28,0,0-2.77-.42-.28-2.44s7.33-7.28,4-14.32c0,0-.67-2.61-6.34-3.48C30.43,181,31,177.72,31,177.72c1.84-16.3,42.31-90.49,86.16-72.76,60.16,24.31,24.43,98.4,24.43,98.4-1.5,4.13-2.68,2.53-2.68,2.53-8.45-2.49-11.22,10-9.35,11.22s-.42,2.78-.42,2.78h-.27c7.13,7.26,11.17,17.84,11.64,30.27,5.5-4.5,7.87-14.42,7.74-16.89-.23-4.18,1.31-3.62,1.31-3.62,12.78,3.48,13.3-9.2,12-12a5.81,5.81,0,0,1,.14-5.21s35.25-67.89-4.51-108.11c0,0-54.28-48.4-108.63-2.11,0,0-23.77,17.08-39.34,71.08,0,0-.23,2.26-2.16,2.73C7.09,176-6.82,188.5,13.66,196.54Z"/><path class="cls-5" d="M35.6,163.58C40.64,125.64,80.53,98,80.53,98c55.1-30.83,84.29,20.75,84.29,20.75,8.36,6,10.36,47.06,10.36,47.06l-8.54-24.76c-1.31-9.25-12.5-25.9-12.5-25.9C149.69,105.06,85.29,57.65,36.92,160Z"/></g></g><g id="Texto"><text class="cls-6" transform="translate(235.79 158.76)">RADIO</text><text class="cls-7" transform="translate(235.79 287)">P<tspan class="cls-8" x="84.73" y="0">ALAMBLA</tspan></text></g><g id="Base"><path class="cls-9" d="M99.45,320.39a10.31,10.31,0,0,0-.12,9.87c2.75,5.49,22,11,59.92,10.44S212,327,212.57,325.31c0,0,1.9-3-.42-8.9C212.15,316.41,164.43,307.78,99.45,320.39Z"/><path class="cls-10" d="M212.57,317.61c-1.52-7.62-26.38-17.55-58.36-15.87-30.14,1.58-56,12.56-56,22.47,0,8.25,28.58,12.74,58,12.69C184,336.85,214.22,325.86,212.57,317.61Z"/><path class="cls-11" d="M149.36,317.61V220.86h12.09v96.75S155.41,320.91,149.36,317.61Z"/><path class="cls-12" d="M163.05,223.15s-.5,18,3.35,25.2,5.5-.55,5.5-.55,2.74-7.7,2.74-24.74Z"/><path class="cls-13" d="M159.25,222s0,3.3,8.8,3.3,9.89-2.75,9.89-2.75v-4.94Z"/><path class="cls-14" d="M145.51,220.32v2.19s1.65,2.75,14.84,1.65,18.69-3.84,17.59-3.84v-2.75Z"/><path class="cls-2" d="M177.94,219.77c-1.1.55-1.1,1.64-15.94,3.29s-16.74-1.65-16.74-1.65V166.79a44.37,44.37,0,0,1-.49-9.21.87.87,0,0,0,0-.11h0a10.51,10.51,0,0,1,.11-1.91h0a7.9,7.9,0,0,1,4.47-6.15,16,16,0,0,1,5,.79c-.16.68-.35,1.5-.54,2.43a55.72,55.72,0,0,0-1.18,9.66c.44,3.36,1.64,6.27,4.39,6.91l4.95,1.1a6.12,6.12,0,0,0,3.95-.38l.17-.08v11.73c1.1,8.25,2.75,8.8,7.7,14.84s4.67,9.07,4.67,9.07S179,219.22,177.94,219.77Z"/><path class="cls-4" d="M177.94,219.77c-1.1.55-1.1,1.64-15.94,3.29-1,.11-1.88.2-2.75.27V169.68l2.75.61a6.12,6.12,0,0,0,3.95-.38l.17-.08v11.73c1.1,8.25,2.75,8.8,7.7,14.84s4.67,9.07,4.67,9.07S179,219.22,177.94,219.77Z"/><path d="M166,169.91a2.43,2.43,0,0,1-.65.93,6.49,6.49,0,0,1-7.15.55c-3.84-2.2-6-4.4-6-8.79,0-3.88-.43-7.33,1.73-10a55.72,55.72,0,0,0-1.18,9.66c.44,3.36,1.64,6.27,4.39,6.91l4.95,1.1A6.12,6.12,0,0,0,166,169.91Z"/><path class="cls-15" d="M167.22,249.72S174.92,297,148,320.09c0,0-30.23,19.24-65.41,25.83,0,0-13.74,2.2-4.4-5.49s47.28-13.2,81.36-2.75,49.47,16.49,65.41,9.89c0,0,11-4.95-29.13-20.34s10.44-6.59,10.44-6.59l78.06,13.19s52.22,8.25,62.12,5.5,7.69-6.6-9.9-12.1-51.12-15.39-51.12-15.39S256.83,303.05,264,302s69.81,6,69.81,6L425,318.44s58.26,7.69,67.61,7.69,24.19,0,12.09-5.49-31.88-10.45-31.88-10.45l-.55,1.1s30.78,8.25,29.14,9.35c0,0,18.14,5.49-7.15,4.39s-98.4-11.54-98.4-11.54l-95.65-11s-35.18-4.95-39.58-1.1,23.09,11.54,27.49,13.19S337.63,330,337.63,330s18.69,6,7.15,6.6a131.41,131.41,0,0,1-20.34-.55l-34.63-3.85-63.77-11s-39-6.6-44.52-4.95-6.05,4.4,3.84,9.34,46.18,19.24,34.09,20.34-20.34.55-44.53-7.14-40.13-10.45-53.87-9.9-33.53,0-48.38,12.1c0,0-9.34,11.54,12.65,8.24s61-23.09,61-23.09,14.3-7.14,22.54-33c0,0,6-30.78,2.2-43.43Z"/><path class="cls-16" d="M163,172.49s-.48,14.1,2.82,17.91,8.25,10.34,8.79,15.23,0,15.23,0,15.23,1.1-15.46-4.39-22.53S160.76,188.31,163,172.49Z"/></g><g id="Microfono"><path d="M154.86,148.3s-.2.71-.48,1.89a16,16,0,0,0-5-.79,7.89,7.89,0,0,0-4.47,6.13,31.36,31.36,0,0,1,1.72-8.33s0-.55,1.65-.55S154.31,147.2,154.86,148.3Z"/><path class="cls-3" d="M185.09,131.26c-.55,2.2-14.84,33.53-14.84,33.53-2.75,7.15-8.25,5.5-8.25,5.5l-4.95-1.1c-2.75-.64-4-3.55-4.39-6.91a64.8,64.8,0,0,1,2.2-14c-.55-1.1-5-1.65-6.6-1.65s-1.65.55-1.65.55c-2.52,6.85-2,15.12-1.3,20-4.66-1.66-4.2-6.8-4.2-6.8-1.1-4.4,5.5-30.79,5.5-30.79Z"/><path class="cls-4" d="M185.09,131.33c-.55,2.2-14.84,33.54-14.84,33.54-2.75,7.14-8.25,5.49-8.25,5.49l-.32-.07h0a5.54,5.54,0,0,1-3-2.68c-2.75-4.94,0-15.39,0-15.39l5-21.8Z"/><path class="cls-17" d="M217,46.61l-4.75,21.24-.74,1.85-.12,2-.2.89-1.5,5.4-.38,1.1.18,1.11-1.2,5.35L208,86l-.39,1.86.08.12-1.12,5-.76,1.23-.4,1.87.3.74-1.14,5.09-.39.6-1,2.37.48,1-1,4.29-.76.69-1,2.86.81.49-.26,1.16c-15.31,22.54-46.6,21.4-59.37,16.49-7.14-2.75-22.32-8.35-25.83-15.39-4.4-8.79-.55-17.59-.55-17.59L119.12,95l0-.15.9-.11,1-3.92-.28-1.86c.28.27,1.38-2.48,1.38-2.48l1.1-4.4-.49-2.92.13-.57,2-2,.55-2.75-.55-2.75,1.65-3.85.55-2.2-.55-2.2L128.19,59l.55-2.75-.49-1,.81-3.52,1-1.7.58-2.42-.48-.82.95-4.11.9-1.27.55-2.2-.34-1.38.45-2,1.54-2.7.55-2.2-.45-2.25.18-.77c-3.16-2.75-1.1-8.25-1.1-8.25C135.07,1.53,162.28,1,162.28,1S174.66-1.23,190,7C219.72,23,217,46.61,217,46.61Z"/><path class="cls-2" d="M114.33,108.4c.11,3.89,1.12,7.94,4.08,10.91A19,19,0,0,1,114.33,108.4Zm93-92.3C189.76,4,173.82-3.69,153.48,1.81S134.24,17.2,133.14,20c-.19.47-.81,3.05-1.71,7,0,1.47.29,2.63.89,2.63a9.86,9.86,0,0,0,2.47,1.37v-2.2a21.5,21.5,0,0,1,9.9-2.2l-1.1,4.4S132,32,130.94,33.14c0,0-1.65,0-1.1,4.4l2.75,1.65V37.54a14.79,14.79,0,0,1,9.9-1.65l-1.1,3.85s-9.9.55-11.55,1.65a5.69,5.69,0,0,0-1.9,1.18c-.2.91-.4,1.83-.6,2.77a1.59,1.59,0,0,0,.58.72,28.57,28.57,0,0,0,2.75,1.65V46.06s.82-1.38,9.62-1.38l-1.1,3.85s-11,.55-12.09,1.65a5.76,5.76,0,0,0-1,.89c-.22,1-.45,2.07-.68,3.11.23.73,1,1.47,3.34,2v-1.1s-.55-1.65,8.25-1.65c0,0-2.2,3.85-5,4.4,0,0-5.47.34-7.78,1.56-.25,1.15-.5,2.3-.74,3.43.39.87,1.32,1.51,3.58,2.15V63.37s1.09-1.1,6-.55l1.65,3.85s-10.44,0-11.54,1.1a1.47,1.47,0,0,0-.88.39c-.26,1.23-.52,2.45-.78,3.64.49.63,1.6,1.27,3.86,2V72.17s1.1-1.65,9.34-1.1l-1.1,4.4s-11,.55-11.54.55a4,4,0,0,0-1.62.71c-.28,1.28-.54,2.52-.8,3.71.44.72,1.41,1.36,3.52,1.62V80.42s.55-.55,9.34-.55L132,84.26s-13.19.55-12.64,1.1a9.73,9.73,0,0,0-.86.65c-.25,1.11-.47,2.14-.67,3.1a7,7,0,0,0,3.18,1.75V89.21s2.75-1.1,9.89-.55l-1.1,5s-9.58-.77-13.06.58l-.4,1.89a37.41,37.41,0,0,0-1.82,7.87,14.9,14.9,0,0,1,1.54-4.84c2.52-4.54.28,8.52.28,8.52-.58,6.26,1.51,10.47,3.66,13.06.06,0,.13.08.18.13a16.71,16.71,0,0,0,3.85,2.75c-.49-.44-1.46-1.41-1.92-1.93-5-5.49-4.4-13.74-4.4-13.74s.55-8.79,2.75-9.89,1.65,2.74,1.65,2.74c-1.65,5-1.38,12.92-1.38,12.92a20.6,20.6,0,0,0,7.78,12.42h0c1,.57,2.11,1.16,3.25,1.73l0,0c.69.35,1.41.7,2.15,1,11.81,5.47,29.42,9.89,56.59,6.22,0,0,12.91-4.12,13.46-17.31l.54-2.43c-2.84-3.17-13.73-6.92-13.73-6.92-1.1,0-5-2.2-5-2.2-1.1-5,1.65-5,1.65-5,18.14,6.6,14.84,8.25,14.84,8.25l-.54,1.65h.54a12.18,12.18,0,0,0,3.25-.62l.91-4c-1.88-2.27-9.65-5.24-9.65-5.24L189.21,98c-3.3-3.3-.55-5.5-.55-5.5,2.75-.55,9.9,3.85,9.9,3.85,7.14,3.29,6,4.94,6,4.94l-.55,1.65a5.08,5.08,0,0,0,3.53-1l.94-4.22c-2.93-2.39-11.06-6.28-11.06-6.28-5.5-1.65-7.15-3.3-7.15-3.3-2.2-4.4,1.1-4.4,1.1-4.4,17.59,6.6,14.84,8.8,14.84,8.8l-.55,2.2a8.09,8.09,0,0,0,3.72-1.06l1-4.27a49.23,49.23,0,0,0-11.81-7.32,34.76,34.76,0,0,1-6.05-2.74c-2.2-3.85.55-4.4.55-4.4,18.14,7.14,15.39,9.34,15.39,9.34l-.55,2.2a10.57,10.57,0,0,0,3.4-1.3l1-4.37a14.28,14.28,0,0,0-2.7-2.55l0,0c0-.55-5.5-3.3-5.5-3.3-.55-.55-8.24-3.85-8.24-3.85a2.9,2.9,0,0,1-2.2-2.75c0-3.3,1.65-2.75,1.65-2.75,17,7.15,14.84,9.9,14.84,9.9s-.38,2.31-.51,2.74a14.73,14.73,0,0,0,3.51-1.14l1.12-5a18.54,18.54,0,0,0-2.47-2.62c2.08-.26,2.94-.77,3.36-1.41l1-4.3A9.56,9.56,0,0,0,214,61.18a6.21,6.21,0,0,0,3-1.27L218,55.18a9.58,9.58,0,0,0-2.1-2.53,4.32,4.32,0,0,0,3-1.75l1.63-7.32S224.94,28.19,207.35,16.1Zm-32.43-11s-3.85,1.09-6,11.54c0,0-1.65,6.05-4.39,2.75,0,0-1.65-5.5,4.94-13.75A9.69,9.69,0,0,1,174.92,5.11Zm-3.85-3.3s-6.59.55-8.79,12.09c0,0-1.65,8.25-4.95,6s2.75-13.2,2.75-13.2S165-1.49,171.07,1.81Zm-8.24-.55s-5.5,1.65-7.7,11.54-5.5,7.15-5.5,7.15-1.65-1.1,2.2-11C151.83,9,154.58.71,162.83,1.26ZM135.34,20c-.41.89-2.41,4.39-2.2,2.2.83-8.51,3.57-12.37,9.06-15.66A20.54,20.54,0,0,0,135.64,19C135.62,19.06,135.39,19.84,135.34,20Zm2.75,1.65c-2.2.55,1.1-8.25,1.1-8.25a15.05,15.05,0,0,1,7.83-9c-.65.43-3.49,2.76-5.91,11.46C141.11,15.82,140.29,21.05,138.09,21.6Zm5.5-.55s-2.2,0,.55-8.25,8.79-11,11.27-10.72c0,0-4.95,1.1-7.7,11.55C147.71,13.63,146.33,21.6,143.59,21.05Zm-15.4,103.34c-6-5-5.49-14.29-5.49-14.29S123.25,98.56,126,98s2.19,3.29,2.19,3.29c-2.19,5-1.37,13.47-1.37,13.47,1,11.56,14.87,16.69,17.24,17.48C142.23,131.68,133.58,128.8,128.19,124.39Zm19.24,8.25s-14.29-4.95-16.49-12.1-1.65-13.74,0-20.34a2.26,2.26,0,0,1,3.3-1.64s1.65.55,0,7.14,0,13.74,1.1,15.39,3.85,7.15,15.39,11.55Zm7.15,0s-15.94-3.85-18.14-15.94c0,0-1.1-9.35,1.1-14.3s3.85-3.29,4.4-2.75,0,5.5-.55,7.15-1.1,11.54,2.75,15.94,7.69,6.6,13.74,8.8C157.88,131.54,157.88,132.09,154.58,132.64Zm9.9-3.3-1.1,1.1a4,4,0,0,1-3.85,0c-2.2-1.1-8.25-2.2-13.74-9.9,0,0-4.4-9.34,0-18.69,0,0,1.09-3.29,3.29-1.1,0,0,1.1.55,0,5.5s-1.1,12.64,4.4,16.49,8.25,5.5,9.35,5.5C162.83,128.24,165,128.79,164.48,129.34Zm9.34-28s-12.92-4.67-23.09-6c-12-1.63-15.11-1.38-15.11-1.38l.82-4.67s15.52.3,22.54,2.2c7.69,2.08,16.21,4.83,17.86,6.39S175.47,102.86,173.82,101.3Zm2.2-8.92s-13.22-5.62-23.09-6.47c-12.09-1-15.39-1.1-15.39-1.1l1.1-4.39s15.52.18,22.54,2.08c7.69,2.08,16.21,4.94,17.86,6.5S177.67,93.94,176,92.38Zm2.2-9.22S165,77.41,155.13,76.57c-12.09-1-15.39-1.1-15.39-1.1l1.1-4.4s15.52.18,22.54,2.08c7.69,2.08,16.21,4.95,17.86,6.51S179.87,84.72,178.22,83.16Zm2.2-8.79s-13.22-5.7-23.09-6.6c-12.09-1.1-15.39-1.1-15.39-1.1l4.39-4.4s12.22-.35,19.24,1.65c7.7,2.2,16.22,5.23,17.87,6.88S182.07,76,180.42,74.37Zm2.47-9.07s-12.4-5.88-23.36-6.87c-12.1-1.1-12.65-1.1-12.65-1.1l-2.19-4.4s15.66-.82,23.36,1.92S184,60.35,185.64,62,184.54,67,182.89,65.3ZM184.54,56s-12.4-5.87-23.36-6.87c-12.1-1.1-15.94-.55-15.94-.55l1.37-4.12s15.39-1.65,23.09,1.1,15.94,5.5,17.59,7.14S186.19,57.6,184.54,56Zm3-9.07s-13.23-5.5-24.18-6.59-15.95-.55-15.95-.55l1.38-4.68s15.39-1.64,23.09,1.1,15.94,5.5,17.59,7.15S189.21,48.53,187.56,46.88Zm1.38-9.07s-12.4-5.87-23.37-6.87c-12.09-1.1-15.94-.55-15.94-.55L151,26.27s15.39-1.65,23.09,1.1,15.94,5.5,17.59,7.14S190.59,39.46,188.94,37.81Zm22.81,28.86-.55,2.2-2.2-1.1c-1.65-1.65-10.44-4.95-11.54-5.5a3,3,0,0,1-1.65-3.84c.55-2.2,1.65-1.65,1.65-1.65C214.5,64.47,211.75,66.67,211.75,66.67Zm2.2-8.24-.55,2.2c-1.1-1.1-14.84-8.25-14.84-8.25-2.75-1.65,0-5,0-5C217.25,56.23,214,58.43,214,58.43Zm1.92-8.52-.55,2.2c-5.22-4.13-14.56-8-14.56-8-2.75-3.84.27-5.77.27-5.77C218.07,47.16,215.87,49.91,215.87,49.91Z"/><path class="cls-18" d="M114.33,108.4c.11,3.89,1.12,7.94,4.08,10.91A19,19,0,0,1,114.33,108.4Zm7.82,13.24c-3.93-4.37-4.39-10.47-4.42-12.79-.46-.25-.92-.52-1.39-.81a17.22,17.22,0,0,0,3.7,12.65c.06,0,.13.07.18.13a16.71,16.71,0,0,0,3.85,2.75C123.58,123.13,122.61,122.16,122.15,121.64Zm30.78-35.73c-4.94-.42-8.4-.68-10.78-.84-.36,1.5-.7,2.94-1,4.31a115.12,115.12,0,0,1,16.59,1.73c.28-1.39.58-2.83.89-4.31A46.26,46.26,0,0,0,152.93,85.91Zm12.64-55c-4.84-.44-8.36-.61-10.84-.67-.34,1.44-.67,2.93-1,4.44,4.8-.24,12.11-.3,17.08,1.1.34-1.33.67-2.63,1-3.87A49.82,49.82,0,0,0,165.57,30.94Zm31.34,70.36L189.21,98c-.21-.22-.4-.43-.56-.63-.32,1.41-.63,2.74-.91,4,17.94,6.54,14.66,8.18,14.66,8.18l-.54,1.65h.54a12.18,12.18,0,0,0,3.25-.62l.91-4C204.68,104.27,196.91,101.3,196.91,101.3Zm.55-9.89a22.56,22.56,0,0,1-6.77-3l-.93,4.08c3.18.4,8.8,3.86,8.8,3.86,7.14,3.29,6,4.94,6,4.94l-.55,1.65a5.08,5.08,0,0,0,3.53-1l.94-4.22C205.59,95.3,197.46,91.41,197.46,91.41Zm1.1-9.35a33.5,33.5,0,0,1-5.81-2.61l-1,4.39c17.23,6.5,14.51,8.67,14.51,8.67l-.55,2.2a8.09,8.09,0,0,0,3.72-1.06l1-4.27A49.23,49.23,0,0,0,198.56,82.06Zm11-3.82,0,0c0-.55-5.5-3.3-5.5-3.3-.55-.55-8.24-3.85-8.24-3.85a3.06,3.06,0,0,1-1-.46l-1.05,4.57c17.4,6.94,14.72,9.08,14.72,9.08l-.55,2.2a10.57,10.57,0,0,0,3.4-1.3l1-4.37A14.28,14.28,0,0,0,209.58,78.24ZM207.35,16.1C189.76,4,173.82-3.69,153.48,1.81,143,4.65,138.17,8.68,135.85,12.28a1,1,0,0,0,.16-.06,17.35,17.35,0,0,1,6.19-5.73,18.57,18.57,0,0,0-4,4.94c.68-.24,1.37-.46,2.05-.67A15.83,15.83,0,0,1,147,4.36c-.47.31-2.08,1.61-3.86,5.6.83-.2,1.64-.37,2.42-.52,3-5.64,7.73-7.59,9.83-7.36,0,0-3.4.75-6.12,7a13.94,13.94,0,0,1,2.46.12l.08-.2s2.75-8.24,11-7.69c0,0-4.74,1.42-7.17,9.52a5.66,5.66,0,0,1,1.55,2.48,45.12,45.12,0,0,1,2.87-6.51s4.94-8.24,11-4.94c0,0-6.59.55-8.79,12.09,0,0-1.65,8.25-4.95,6a.9.9,0,0,1-.18-.15c0,.14-.06.28-.1.42-.41,1.78-.85,3.69-1.32,5.7,4.82-.25,12.29-.32,17.32,1.12,1.95-7.49,3.24-12.31,3.24-12.31s8.25-5,7.15,3.29c-.21,1.57-1,5.9-2.23,11.88,5.07,1.82,9.34,3.48,10.48,4.61,1.64,1.65-1.1,5-2.75,3.3,0,0-3.6-1.7-8.63-3.43-.29,1.42-.6,2.91-.92,4.45,4.9,1.77,9,3.37,10.1,4.48,1.65,1.65-.28,5.22-1.93,3.57,0,0-3.86-1.6-9.15-3.26-.31,1.51-.64,3.07-1,4.65,4.79,1.73,8.75,3.3,9.84,4.38,1.65,1.65-1.1,5-2.75,3.3,0,0-3.32-1.57-8-3.22-.32,1.58-.66,3.17-1,4.78,4.91,1.77,9,3.38,10.12,4.49,1.65,1.65-1.1,5-2.75,3.3,0,0-3.45-1.63-8.31-3.33-.31,1.49-.62,3-.94,4.48,4.76,1.62,8.73,3.27,9.8,4.35,1.65,1.64-1.37,5.22-3,3.57,0,0-3.3-1.42-7.83-3-.29,1.42-.59,2.83-.88,4.22,4.64,1.51,8.48,3,9.53,4,1.65,1.56-1.37,5.06-3,3.5,0,0-3.14-1.37-7.5-2.86-.34,1.61-.68,3.19-1,4.74,4.55,1.49,8.3,3,9.33,4,1.65,1.56-1.37,4.94-3,3.38,0,0-3-1.29-7.28-2.73L167.81,94c4.42,1.42,8,2.83,9,3.79,1.65,1.56-1.37,5.06-3,3.5,0,0-2.92-1-7.07-2.3l-2.55,11.92s-5.5,6-8.79,0c-.74-1.34-.11-6.84,1.3-14.58-2-.45-4.05-.82-6-1.08-5-.67-8.41-1-10.73-1.21-.68,2.8-1.27,5.15-1.75,7,1.84-3.19,3.2-1.83,3.69-1.35s0,5.5-.55,7.15a26.37,26.37,0,0,0,1.05,13.07,10.85,10.85,0,0,0,2.84-.6c-1-2.86-2.92-10.14.51-17.42,0,0,1.09-3.29,3.29-1.1,0,0,1.1.55,0,5.5a20.68,20.68,0,0,0,.45,11.3,19.15,19.15,0,0,1,13.57,1.62c9.9,5,35.73,11.54,25.29,13.74-6.38,1.34-21,.23-32.74-2.22.71.28,1.45.57,2.23.85,0,0,0,.55-3.3,1.1a33.68,33.68,0,0,1-11.68-5.77l0,0a12.32,12.32,0,0,1-3.42-2.18c-2.22-2.22-2.44-3.33-1.66-3.93a15,15,0,0,1-1.36-4,44.66,44.66,0,0,1,.19-11.2,10.52,10.52,0,0,1-2.86,2.69c-.78,5.81.61,11.46,1.57,12.9,1.1,1.65,3.85,7.15,15.39,11.55h-3.3s-14.29-4.95-16.49-12.1a32.52,32.52,0,0,1-1.44-10.37,14.18,14.18,0,0,1-2.83.53c0,2.35.15,4.07.15,4.07.94,10.85,13.23,16,16.68,17.3-2.62-.86-10.35-3.62-15.31-7.68-5.25-4.29-5.52-11.9-5.5-13.83a19.06,19.06,0,0,1-1.89-.44c-.08,2.07,0,3.55,0,3.55a20.6,20.6,0,0,0,7.78,12.42h0c1,.57,2.11,1.16,3.25,1.73l0,0c.69.35,1.41.7,2.15,1,11.81,5.47,29.42,9.89,56.59,6.22,0,0,12.91-4.12,13.46-17.31l.54-2.43c-2.84-3.17-13.73-6.92-13.73-6.92-.81,0-3.14-1.21-4.29-1.84-.44,2-.77,3.48-.93,4.31-1.65,8.25,2.75,9.9,2.75,9.9l-9.9-1.65v-3.85l18.69-85.75c3.85-4.4-3.3-9.35-3.3-9.35,7.7-1.1,9.9,11.55,9.9,11.55s-.63,2.72-1.67,7.15c15.87,8.35,13.76,11,13.76,11l-.55,2.2c-4.85-3.84-13.26-7.43-14.43-7.92-.28,1.25-.59,2.56-.9,3.92,17.09,8.23,14,10.32,14,10.32l-.55,2.2c-1-1-12.21-6.88-14.45-8.05-.33,1.43-.67,2.91-1,4.41,16.52,7.52,13.82,9.68,13.82,9.68l-.55,2.2-2.2-1.1c-1.65-1.65-10.44-4.95-11.54-5.5a3.28,3.28,0,0,1-.66-.41c-.3,1.31-.61,2.64-.91,4,16.35,7,14.21,9.63,14.21,9.63s-.38,2.31-.51,2.74a14.73,14.73,0,0,0,3.51-1.14l1.12-5a18.54,18.54,0,0,0-2.47-2.62c2.08-.26,2.94-.77,3.36-1.41l1-4.3A9.56,9.56,0,0,0,214,61.18a6.21,6.21,0,0,0,3-1.27L218,55.18a9.58,9.58,0,0,0-2.1-2.53,4.32,4.32,0,0,0,3-1.75l1.63-7.32S224.94,28.19,207.35,16.1Zm-38.48.55s-1.65,6.05-4.39,2.75c0,0-1.65-5.5,4.94-13.75a9.69,9.69,0,0,1,5.5-.54S171.07,6.2,168.87,16.65Zm1.92,19.16c.34-1.33.67-2.63,1-3.87a49.82,49.82,0,0,0-6.21-1c-4.84-.44-8.36-.61-10.84-.67-.34,1.44-.67,2.93-1,4.44C158.51,34.47,165.82,34.41,170.79,35.81ZM142.15,85.07c-.36,1.5-.7,2.94-1,4.31a115.12,115.12,0,0,1,16.59,1.73c.28-1.39.58-2.83.89-4.31a46.26,46.26,0,0,0-5.68-.89C148,85.49,144.53,85.23,142.15,85.07Zm23.42-54.13c-4.84-.44-8.36-.61-10.84-.67-.34,1.44-.67,2.93-1,4.44,4.8-.24,12.11-.3,17.08,1.1.34-1.33.67-2.63,1-3.87A49.82,49.82,0,0,0,165.57,30.94Zm-2.19,9.35c-4.65-.47-8.22-.64-10.79-.68q-.5,2.19-1,4.44c4.75-.24,11.92-.29,16.86,1.06.33-1.31.65-2.6,1-3.86A56.94,56.94,0,0,0,163.38,40.29Zm-2.2,8.79c-4.69-.42-8.13-.6-10.6-.66-.33,1.46-.67,2.93-1,4.4,4.63,0,11.58.2,16.56,1.46h0c.35-1.43.69-2.84,1-4.24A48.89,48.89,0,0,0,161.18,49.08Zm-1.65,9.35c-6.24-.57-9.41-.84-11-1-.37,1.61-.73,3.21-1.1,4.81,2.86,0,10.75,0,16.48,1.25.34-1.42.69-2.84,1-4.26A48.63,48.63,0,0,0,159.53,58.43Zm-2.2,9.34c-5.06-.46-8.59-.72-11-.88-.33,1.45-.66,2.89-1,4.31a118.25,118.25,0,0,1,16.35,1.56c.32-1.37.64-2.75,1-4.14A47.13,47.13,0,0,0,157.33,67.77Zm-2.2,8.8c-4.95-.43-8.42-.68-10.8-.85-.38,1.65-.75,3.25-1.12,4.82a115.61,115.61,0,0,1,16.4,1.59l1-4.69A43.73,43.73,0,0,0,155.13,76.57Zm-2.2,9.34c-4.94-.42-8.4-.68-10.78-.84-.36,1.5-.7,2.94-1,4.31a115.12,115.12,0,0,1,16.59,1.73c.28-1.39.58-2.83.89-4.31A46.26,46.26,0,0,0,152.93,85.91Z"/></g></g></g></svg>